<?xml version="1.0" standalone="no"?><svg xmlns="http://www.w3.org/2000/svg" viewBox="0 0 1440 320"><path fill="#097979" fill-opacity="1" d="M0,320L6.2,309.3C12.3,299,25,277,37,245.3C49.2,213,62,171,74,138.7C86.2,107,98,85,111,85.3C123.1,85,135,107,148,122.7C160,139,172,149,185,165.3C196.9,181,209,203,222,192C233.8,181,246,139,258,144C270.8,149,283,203,295,218.7C307.7,235,320,213,332,208C344.6,203,357,213,369,213.3C381.5,213,394,203,406,213.3C418.5,224,431,256,443,261.3C455.4,267,468,245,480,234.7C492.3,224,505,224,517,197.3C529.2,171,542,117,554,112C566.2,107,578,149,591,181.3C603.1,213,615,235,628,224C640,213,652,171,665,170.7C676.9,171,689,213,702,197.3C713.8,181,726,107,738,101.3C750.8,96,763,160,775,202.7C787.7,245,800,267,812,261.3C824.6,256,837,224,849,197.3C861.5,171,874,149,886,117.3C898.5,85,911,43,923,26.7C935.4,11,948,21,960,64C972.3,107,985,181,997,229.3C1009.2,277,1022,299,1034,282.7C1046.2,267,1058,213,1071,192C1083.1,171,1095,181,1108,160C1120,139,1132,85,1145,90.7C1156.9,96,1169,160,1182,192C1193.8,224,1206,224,1218,202.7C1230.8,181,1243,139,1255,112C1267.7,85,1280,75,1292,106.7C1304.6,139,1317,213,1329,245.3C1341.5,277,1354,267,1366,245.3C1378.5,224,1391,192,1403,192C1415.4,192,1428,224,1434,240L1440,256L1440,320L1433.8,320C1427.7,320,1415,320,1403,320C1390.8,320,1378,320,1366,320C1353.8,320,1342,320,1329,320C1316.9,320,1305,320,1292,320C1280,320,1268,320,1255,320C1243.1,320,1231,320,1218,320C1206.2,320,1194,320,1182,320C1169.2,320,1157,320,1145,320C1132.3,320,1120,320,1108,320C1095.4,320,1083,320,1071,320C1058.5,320,1046,320,1034,320C1021.5,320,1009,320,997,320C984.6,320,972,320,960,320C947.7,320,935,320,923,320C910.8,320,898,320,886,320C873.8,320,862,320,849,320C836.9,320,825,320,812,320C800,320,788,320,775,320C763.1,320,751,320,738,320C726.2,320,714,320,702,320C689.2,320,677,320,665,320C652.3,320,640,320,628,320C615.4,320,603,320,591,320C578.5,320,566,320,554,320C541.5,320,529,320,517,320C504.6,320,492,320,480,320C467.7,320,455,320,443,320C430.8,320,418,320,406,320C393.8,320,382,320,369,320C356.9,320,345,320,332,320C320,320,308,320,295,320C283.1,320,271,320,258,320C246.2,320,234,320,222,320C209.2,320,197,320,185,320C172.3,320,160,320,148,320C135.4,320,123,320,111,320C98.5,320,86,320,74,320C61.5,320,49,320,37,320C24.6,320,12,320,6,320L0,320Z"></path></svg>