<?xml version="1.0" standalone="no"?><svg xmlns="http://www.w3.org/2000/svg" viewBox="0 0 1440 320"><path fill="#097979" fill-opacity="1" d="M0,288L11.4,250.7C22.9,213,46,139,69,112C91.4,85,114,107,137,144C160,181,183,235,206,213.3C228.6,192,251,96,274,85.3C297.1,75,320,149,343,202.7C365.7,256,389,288,411,288C434.3,288,457,256,480,240C502.9,224,526,224,549,213.3C571.4,203,594,181,617,149.3C640,117,663,75,686,101.3C708.6,128,731,224,754,256C777.1,288,800,256,823,229.3C845.7,203,869,181,891,170.7C914.3,160,937,160,960,165.3C982.9,171,1006,181,1029,160C1051.4,139,1074,85,1097,106.7C1120,128,1143,224,1166,229.3C1188.6,235,1211,149,1234,144C1257.1,139,1280,213,1303,240C1325.7,267,1349,245,1371,202.7C1394.3,160,1417,96,1429,64L1440,32L1440,320L1428.6,320C1417.1,320,1394,320,1371,320C1348.6,320,1326,320,1303,320C1280,320,1257,320,1234,320C1211.4,320,1189,320,1166,320C1142.9,320,1120,320,1097,320C1074.3,320,1051,320,1029,320C1005.7,320,983,320,960,320C937.1,320,914,320,891,320C868.6,320,846,320,823,320C800,320,777,320,754,320C731.4,320,709,320,686,320C662.9,320,640,320,617,320C594.3,320,571,320,549,320C525.7,320,503,320,480,320C457.1,320,434,320,411,320C388.6,320,366,320,343,320C320,320,297,320,274,320C251.4,320,229,320,206,320C182.9,320,160,320,137,320C114.3,320,91,320,69,320C45.7,320,23,320,11,320L0,320Z"></path></svg>