<?xml version="1.0" standalone="no"?><svg xmlns="http://www.w3.org/2000/svg" viewBox="0 0 1440 320"><path fill="#097979" fill-opacity="1" d="M0,320L36.9,256L73.8,128L110.8,64L147.7,128L184.6,160L221.5,224L258.5,96L295.4,256L332.3,192L369.2,224L406.2,192L443.1,288L480,224L516.9,224L553.8,64L590.8,192L627.7,256L664.6,128L701.5,256L738.5,32L775.4,224L812.3,288L849.2,192L886.2,128L923.1,0L960,32L996.9,256L1033.8,320L1070.8,160L1107.7,192L1144.6,32L1181.5,224L1218.5,224L1255.4,96L1292.3,64L1329.2,288L1366.2,256L1403.1,160L1440,256L1440,320L1403.1,320L1366.2,320L1329.2,320L1292.3,320L1255.4,320L1218.5,320L1181.5,320L1144.6,320L1107.7,320L1070.8,320L1033.8,320L996.9,320L960,320L923.1,320L886.2,320L849.2,320L812.3,320L775.4,320L738.5,320L701.5,320L664.6,320L627.7,320L590.8,320L553.8,320L516.9,320L480,320L443.1,320L406.2,320L369.2,320L332.3,320L295.4,320L258.5,320L221.5,320L184.6,320L147.7,320L110.8,320L73.8,320L36.9,320L0,320Z"></path></svg>